<svg xmlns="http://www.w3.org/2000/svg" viewBox="0 0 512 512" width="512" height="512">
  <!-- 背景 -->
  <rect width="512" height="512" rx="64" fill="#4A90E2"/>
  
  <!-- 画板 -->
  <rect x="96" y="96" width="320" height="320" rx="32" fill="white" opacity="0.9"/>
  
  <!-- 画笔 -->
  <path d="M320 120 L380 180 L200 360 L140 400 L180 340 Z" fill="#333" opacity="0.8"/>
  <path d="M320 120 L380 180 L360 200 L300 140 Z" fill="#666"/>
  
  <!-- 调色板 -->
  <circle cx="200" cy="200" r="40" fill="#FF6B6B" opacity="0.8"/>
  <circle cx="280" cy="160" r="30" fill="#4ECDC4" opacity="0.8"/>
  <circle cx="240" cy="240" r="35" fill="#FFE66D" opacity="0.8"/>
  <circle cx="320" cy="220" r="25" fill="#A8E6CF" opacity="0.8"/>
  
  <!-- 星星装饰 -->
  <polygon points="150,80 160,110 190,110 165,130 175,160 150,140 125,160 135,130 110,110 140,110" fill="#FFD700" opacity="0.6"/>
  <polygon points="400,100 410,130 440,130 415,150 425,180 400,160 375,180 385,150 360,130 390,130" fill="#FFD700" opacity="0.6"/>
  
  <!-- 文字 "AI" -->
  <text x="256" y="400" font-family="Arial, sans-serif" font-size="80" font-weight="bold" text-anchor="middle" fill="#333">AI</text>
</svg>